<svg width="59" height="60" viewBox="0 0 59 60" fill="none" xmlns="http://www.w3.org/2000/svg">
<g clip-path="url(#clip0_159_70)">
<path fill-rule="evenodd" clip-rule="evenodd" d="M1.88831 0.0676636C58.8943 0.0676636 58.9094 0.0637187 58.9449 0.101242C59.0001 0.15956 58.9999 59.8508 58.9449 59.9044C58.9065 59.9419 58.8922 59.938 2.40431 59.938C0.129175 59.938 9.32422e-05 59.9802 0.00603825 59.7531C0.0177176 59.306 0.00786388 0.756539 0.0111407 0.251289C0.0126386 0.0193035 0.136969 0.0676636 1.88831 0.0676636Z" fill="#A7F076"/>
<path fill-rule="evenodd" clip-rule="evenodd" d="M15.86 14.0237C15.8609 13.7557 15.8538 13.7603 15.8618 13.4963C15.8674 13.3102 16.1987 13.2556 17.079 12.9939C29.2948 9.36227 42.996 10.1035 45.279 16.5033C48.3311 25.0589 33.1596 27.7997 26.5543 32.9975C21.8364 36.7102 23.5303 40.8107 26.8001 41.3615C35.0751 42.7553 41.9585 26.8841 42.3425 26.0654C42.3973 25.9486 42.4337 25.9397 44.7164 25.9458C44.9835 25.9465 44.9153 26.1774 44.9153 27.2711C44.9153 48.5563 44.9169 48.5593 44.9019 48.586C44.8584 48.6629 44.8288 48.6538 37.2713 48.6538C34.1248 48.6538 34.0139 48.6776 34.0386 48.5281C34.4159 46.2357 38.4237 39.5893 39.1534 38.3271C41.3103 34.5962 42.6918 31.5551 42.731 31.3138C42.7645 31.1076 41.8785 30.8891 41.8306 30.9045C41.529 31.0015 37.8877 40.4597 31.2229 45.9025C23.397 52.2935 13.3905 49.5259 12.6109 41.4879C11.0966 25.8761 38.217 26.0616 42.3171 20.4113C44.7284 17.0883 39.5749 14.9351 31.1503 16.9321C22.0968 19.0782 16.0792 24.0796 15.8944 24.0522C15.8564 24.0466 15.8598 24.0246 15.8599 14.0237L15.86 14.0237Z" fill="#201D1B"/>
</g>
<defs>
<clipPath id="clip0_159_70">
<rect width="59" height="60" rx="16" fill="white"/>
</clipPath>
</defs>
</svg>
