<svg width="80" height="80" viewBox="0 0 80 80" fill="none" xmlns="http://www.w3.org/2000/svg">
<path d="M64.6224 57.8095C63.7531 56.3054 62.3174 53.8051 60.8914 51.3438C60.4617 50.5918 60.0319 49.8495 59.6217 49.1365C58.772 47.6715 58.0004 46.3334 57.4535 45.3763C53.6347 38.7739 46.1142 25.7059 42.3637 19.25C41.2015 17.4529 38.5253 17.5896 37.5291 19.4551C36.3864 21.4182 35.146 23.5669 33.8275 25.8426C33.4075 26.5653 32.9875 27.2979 32.5578 28.0401C27.0884 37.514 20.6813 48.6091 16.1202 56.5105C15.8858 56.9305 15.456 57.6239 15.2412 58.0732C14.8603 58.8936 14.9384 59.9191 15.417 60.6809C15.9542 61.5795 16.9699 62.0776 17.9954 62.019H27.8306C39.6681 62.019 57.7563 62.0288 62.2002 62.019C64.3489 62.0385 65.6967 59.6652 64.6224 57.8095ZM39.1309 49.4198L36.9529 45.64C36.572 44.9759 37.0505 44.1457 37.8124 44.1457H42.1684C42.94 44.1457 43.4185 44.9759 43.0279 45.64L40.8498 49.4198C40.4787 50.0839 39.5216 50.0839 39.1309 49.4198ZM35.4781 42.3876C35.3023 41.9286 35.146 41.4598 35.0093 40.9812L42.2172 42.3876H35.4781ZM38.7793 52.3205C38.4765 52.7112 38.1444 53.0726 37.8026 53.4242L35.4097 46.4799L38.7793 52.3205ZM45.7333 44.507C46.2216 44.5754 46.7002 44.6828 47.1788 44.8098L42.3637 50.3574L45.7333 44.507ZM34.5698 38.6176C34.4916 37.9144 34.4623 37.2112 34.4623 36.4982L43.985 41.1472L34.5698 38.6176ZM33.4466 45.5814L35.9664 54.9966C35.3999 55.4166 34.8042 55.7975 34.1791 56.1491L33.4466 45.5814ZM49.4544 45.6009C50.099 45.8842 50.7339 46.2065 51.3492 46.5678L42.5688 52.4963L49.4544 45.6009ZM34.687 33.4998C34.8628 32.2106 35.1265 30.9409 35.4585 29.72L49.9232 42.2997L34.687 33.4998ZM31.4834 57.4579C30.2821 57.956 29.0417 58.3564 27.8306 58.6787L31.4834 39.8678V57.4579ZM53.83 48.2575C54.8555 49.0584 55.8224 49.9276 56.721 50.8164L38.5937 57.0574L53.83 48.2575ZM40.6252 22.6488C43.2916 27.2783 47.169 33.9881 50.8511 40.3757L37.0798 26.6044C37.8905 25.2078 38.6523 23.8697 39.3653 22.6488C39.6485 22.1703 40.3517 22.1703 40.6252 22.6488ZM19.1186 57.7314C19.8804 56.4226 20.9157 54.6255 21.1501 54.2153C23.3477 50.416 26.307 45.2884 29.3543 40.0045L24.3146 58.8252H19.7535C19.187 58.8252 18.8354 58.2197 19.1186 57.7314ZM60.2468 58.8252H39.7657L58.5962 53.7758C59.5827 55.485 60.3738 56.8523 60.8816 57.7314C61.1649 58.2197 60.8133 58.8252 60.2468 58.8252Z" fill="white"/>
</svg>
