<svg width="80" height="80" viewBox="0 0 80 80" fill="none" xmlns="http://www.w3.org/2000/svg">
<path d="M60.6666 8.80029H19.3334C13.0741 8.80029 8 13.8744 8 20.1337V59.8664C8 66.1257 13.0741 71.1998 19.3334 71.1998H60.6666C66.9259 71.1998 72 66.1257 72 59.8664V20.1337C72 13.8744 66.9259 8.80029 60.6666 8.80029Z" fill="#330000"/>
<path d="M39.0133 46.2482H29.0951L27.078 52.5162C27.0513 52.6311 26.985 52.7328 26.8907 52.8036C26.7964 52.8743 26.6801 52.9095 26.5624 52.9029H21.5395C21.2525 52.9029 21.1524 52.7452 21.2392 52.4299L29.8259 27.6958C29.9093 27.438 29.9953 27.1461 30.0837 26.8199C30.1952 26.2467 30.2526 25.6644 30.2551 25.0805C30.25 25.046 30.2518 25.0108 30.2604 24.9769C30.2689 24.9431 30.2841 24.9113 30.3051 24.8833C30.326 24.8554 30.3523 24.8319 30.3824 24.8142C30.4125 24.7965 30.4458 24.7849 30.4804 24.7802C30.5053 24.7764 30.5306 24.7764 30.5555 24.7802H37.3815C37.5818 24.7802 37.6956 24.8515 37.7257 24.9942L47.4711 52.4724C47.5575 52.7577 47.4711 52.9016 47.2133 52.9016H41.6324C41.5365 52.9123 41.4401 52.8877 41.3611 52.8324C41.2821 52.7771 41.226 52.695 41.2031 52.6013L39.0133 46.2482ZM30.6418 40.8349H37.4241C37.2531 40.2618 37.0528 39.6178 36.8234 38.9028C36.594 38.1879 36.3508 37.4221 36.0939 36.6054L35.3206 34.159C35.0628 33.3431 34.8267 32.5556 34.6123 31.7965C34.3979 31.0373 34.2031 30.3449 34.0279 29.7192H33.9854C33.7436 30.8785 33.4424 32.0245 33.0832 33.1529C32.6827 34.4418 32.2748 35.7586 31.8594 37.1034C31.4439 38.4482 31.0381 39.692 30.6418 40.8349Z" fill="#FF9A00"/>
<path d="M53.2662 29.3326C52.8283 29.35 52.3916 29.2749 51.9848 29.1121C51.5779 28.9493 51.2099 28.7025 50.9049 28.3878C50.6007 28.0594 50.3645 27.6741 50.2099 27.254C50.0553 26.8339 49.9853 26.3874 50.0039 25.9402C49.989 25.4983 50.0674 25.0582 50.2338 24.6486C50.4003 24.2389 50.6511 23.8689 50.97 23.5626C51.2858 23.2595 51.6584 23.0218 52.0665 22.8633C52.4745 22.7048 52.9099 22.6286 53.3475 22.6391C54.3778 22.6391 55.1862 22.947 55.7726 23.5626C56.3676 24.2081 56.6825 25.063 56.6486 25.9402C56.6666 26.3892 56.5942 26.8373 56.4355 27.2578C56.2769 27.6783 56.0353 28.0626 55.7251 28.3878C55.4023 28.706 55.0173 28.9542 54.5942 29.1167C54.1711 29.2793 53.719 29.3528 53.2662 29.3326ZM50.3043 52.4724V31.9504C50.3043 31.6926 50.4181 31.5637 50.6471 31.5637H55.9265C56.1543 31.5637 56.2694 31.6889 56.2694 31.9504V52.4724C56.2694 52.7577 56.1555 52.9016 55.9265 52.9016H50.6909C50.4331 52.9029 50.3043 52.759 50.3043 52.4724Z" fill="#FF9A00"/>
</svg>
