<svg width="80" height="80" viewBox="0 0 80 80" fill="none" xmlns="http://www.w3.org/2000/svg">
<mask id="mask0_159_75" style="mask-type:luminance" maskUnits="userSpaceOnUse" x="13" y="15" width="54" height="54">
<path d="M39.9998 68.0675C54.5546 68.0675 66.3536 56.2685 66.3536 41.7137C66.3536 27.1589 54.5546 15.3599 39.9998 15.3599C25.445 15.3599 13.646 27.1589 13.646 41.7137C13.646 56.2685 25.445 68.0675 39.9998 68.0675Z" fill="white"/>
</mask>
<g mask="url(#mask0_159_75)">
<path d="M40.0001 68.1003C54.7914 68.1003 66.7821 56.1095 66.7821 41.3182C66.7821 26.5269 54.7914 14.5361 40.0001 14.5361C25.2088 14.5361 13.218 26.5269 13.218 41.3182C13.218 56.1095 25.2088 68.1003 40.0001 68.1003Z" fill="black" fill-opacity="0.47451"/>
</g>
<path d="M39.9998 66.3536C54.5546 66.3536 66.3536 54.5546 66.3536 39.9998C66.3536 25.445 54.5546 13.646 39.9998 13.646C25.445 13.646 13.646 25.445 13.646 39.9998C13.646 54.5546 25.445 66.3536 39.9998 66.3536Z" fill="white"/>
<path d="M53.1767 17.177C40.5719 9.89955 24.4542 14.2183 17.1768 26.8231C9.89936 39.4279 14.2181 55.5457 26.8229 62.8231C39.4278 70.1005 55.5455 65.7818 62.8229 53.1769C70.1003 40.5721 65.7816 24.4544 53.1767 17.177Z" fill="url(#paint0_linear_159_75)"/>
<path d="M53.1769 62.8232C65.7817 55.5458 70.1005 39.4281 62.823 26.8233C55.5456 14.2184 39.4279 9.89969 26.8231 17.1771C14.2182 24.4545 9.8995 40.5722 17.1769 53.1771C24.4543 65.7819 40.572 70.1006 53.1769 62.8232Z" fill="url(#paint1_linear_159_75)"/>
<path d="M13.6464 39.9998C13.6464 54.5546 25.4454 66.3536 40.0002 66.3536C54.555 66.3536 66.354 54.5546 66.354 39.9998C66.354 25.445 54.555 13.646 40.0002 13.646C25.4454 13.646 13.6464 25.445 13.6464 39.9998Z" fill="url(#paint2_linear_159_75)"/>
<path d="M21.074 21.7012C19.552 23.2722 18.2314 25.0265 17.1428 26.9238C20.9963 30.6945 25.1457 34.6963 26.8378 36.5197C29.7004 39.6045 35.6678 44.1111 40.0194 43.5923C41.7378 44.8009 45.6315 47.5087 46.9332 48.1507C46.9077 48.7729 47.0322 49.4038 47.256 50.0302C48.4763 53.4458 53.0383 55.6646 50.3829 59.3049C55.6101 56.1373 57.0004 50.8511 54.7855 47.0806C53.4025 44.7262 51.3904 43.9533 49.7154 44.5161C48.7123 43.3817 44.7221 40.0682 43.253 38.8588C42.3163 34.6462 36.6352 30.3009 33.0164 28.4163C30.8046 27.2644 25.7454 24.4184 21.074 21.7012Z" fill="black" fill-opacity="0.47451"/>
<path d="M43.3011 42.05C39.0786 45.99 30.955 39.7403 27.5261 35.8152C23.9994 31.7782 10.8307 18.1622 9.86817 17.2791C8.90568 16.396 8.13912 15.3055 8.9902 14.2205C9.8762 13.1639 11.1014 13.6889 12.1641 14.4484C13.2268 15.208 29.2672 25.2834 33.9452 27.9011C38.4934 30.4461 46.285 37.1052 43.3011 42.05Z" fill="url(#paint3_linear_159_75)"/>
<path d="M50.075 45.9383C33.5952 60.6398 20.1163 46.5502 18.0278 41.6694C19.2628 50.1411 24.9714 57.7222 33.5952 60.6398C40.1083 62.8432 50.5013 62.7921 55.1607 54.3975L50.075 45.9383Z" fill="url(#paint4_linear_159_75)"/>
<path d="M50.0063 47.3214C48.6601 47.9379 48.8057 48.3835 47.6104 48.1913C46.786 48.0587 39.6442 42.6451 39.6442 42.6451C39.2822 41.7764 39.7164 40.5822 40.5321 39.6369C41.2886 38.6438 42.3676 37.9724 43.2923 38.1474C43.2923 38.1474 50.0632 44.0183 50.363 44.7976C50.7978 45.9275 50.3317 45.877 50.0063 47.3214Z" fill="#BFBFBF"/>
<path d="M50.3764 59.2973C55.6964 56.2881 57.2448 51.046 55.1441 47.2107C53.5117 44.2304 50.8314 43.6669 48.9801 45.108C47.1435 46.5376 46.9816 48.2411 47.5295 49.933C48.6467 53.3836 53.1399 55.7384 50.3764 59.2973Z" fill="#282828"/>
<defs>
<linearGradient id="paint0_linear_159_75" x1="62.8229" y1="53.1769" x2="28.596" y2="33.416" gradientUnits="userSpaceOnUse">
<stop stop-color="#FFFF00"/>
<stop offset="1" stop-color="#FFFF00" stop-opacity="0"/>
</linearGradient>
<linearGradient id="paint1_linear_159_75" x1="17.1769" y1="53.1771" x2="51.4038" y2="33.4162" gradientUnits="userSpaceOnUse">
<stop stop-color="#00FFFF"/>
<stop offset="1" stop-color="#00FFFF" stop-opacity="0"/>
</linearGradient>
<linearGradient id="paint2_linear_159_75" x1="40.0002" y1="13.646" x2="40.0002" y2="53.1678" gradientUnits="userSpaceOnUse">
<stop stop-color="#FF00FF"/>
<stop offset="1" stop-color="#FF00FF" stop-opacity="0"/>
</linearGradient>
<linearGradient id="paint3_linear_159_75" x1="8.9904" y1="14.2204" x2="44.0132" y2="42.6633" gradientUnits="userSpaceOnUse">
<stop stop-color="#343434"/>
<stop offset="1" stop-color="#4D4D4D"/>
</linearGradient>
<linearGradient id="paint4_linear_159_75" x1="51.5243" y1="51.2012" x2="18.9781" y2="50.9437" gradientUnits="userSpaceOnUse">
<stop stop-color="#5596EA"/>
<stop offset="1" stop-color="#5596EA" stop-opacity="0"/>
</linearGradient>
</defs>
</svg>
