<svg width="80" height="80" viewBox="0 0 80 80" fill="none" xmlns="http://www.w3.org/2000/svg">
<path d="M60.6672 8.7998H19.3328C13.0739 8.7998 8 13.8737 8 20.1326V59.8675C8 66.1264 13.0739 71.2003 19.3328 71.2003H60.6672C66.9261 71.2003 72 66.1264 72 59.8675V20.1326C72 13.8737 66.9261 8.7998 60.6672 8.7998Z" fill="#001E36"/>
<path d="M22.4119 52.5591V25.1238C22.4119 24.9249 22.4969 24.8236 22.6695 24.8236C23.126 24.8236 23.5449 24.8236 24.1702 24.8024C24.7955 24.7811 25.4796 24.7736 26.2099 24.7599L28.5285 24.7161C29.3439 24.7019 30.1522 24.6948 30.9534 24.6948C33.1286 24.6948 34.9627 24.9666 36.4559 25.5102C37.7983 25.9652 39.0226 26.7132 40.0401 27.7C40.9029 28.5558 41.5695 29.5888 41.9935 30.7277C42.3948 31.8366 42.5975 33.0075 42.5926 34.1868C42.5926 36.4778 42.0632 38.3671 41.0043 39.8544C39.938 41.3482 38.4397 42.4795 36.7111 43.0959C34.9077 43.7688 32.903 43.9964 30.6995 43.9964C30.0742 43.9964 29.6265 43.9901 29.3689 43.9751C29.1113 43.9601 28.7248 43.9539 28.2096 43.9539V52.5191C28.2161 52.5636 28.2138 52.6089 28.2027 52.6524C28.1916 52.696 28.172 52.7369 28.1451 52.7728C28.1181 52.8087 28.0843 52.839 28.0455 52.8617C28.0068 52.8845 27.964 52.8994 27.9194 52.9055C27.8875 52.9105 27.8551 52.9105 27.8232 52.9055H22.712C22.5069 52.9018 22.4119 52.788 22.4119 52.5591ZM28.2096 29.9761V38.924C28.5814 38.9532 28.9249 38.9673 29.2401 38.9665H30.657C31.6996 38.963 32.7353 38.7976 33.7272 38.4763C34.5774 38.2248 35.3375 37.7343 35.9169 37.0631C36.4747 36.4053 36.7536 35.4882 36.7536 34.3118C36.7752 33.4812 36.5582 32.6618 36.1283 31.9507C35.6777 31.263 35.0262 30.7307 34.2624 30.4263C33.2668 30.0396 32.2035 29.8571 31.136 29.8898C30.4481 29.8898 29.8399 29.8968 29.3113 29.911C28.7828 29.9252 28.4176 29.9469 28.2158 29.9761H28.2096Z" fill="#31A8FF"/>
<path d="M59.1927 37.2967C58.3859 36.8817 57.5264 36.5783 56.6378 36.395C55.659 36.1701 54.6582 36.0547 53.6539 36.0511C53.1108 36.0366 52.5685 36.1019 52.0444 36.245C51.7104 36.3189 51.4134 36.509 51.2065 36.7815C51.0666 36.9993 50.9924 37.2529 50.9927 37.5118C51.0002 37.7628 51.0908 38.0043 51.2503 38.1984C51.5009 38.4918 51.8074 38.7324 52.1519 38.9062C52.7637 39.2347 53.3943 39.527 54.0403 39.7816C55.4813 40.2643 56.8583 40.9202 58.141 41.735C59.014 42.287 59.7367 43.0466 60.2445 43.9461C60.6724 44.7991 60.887 45.7432 60.8698 46.6974C60.8951 47.9557 60.5356 49.1918 59.8393 50.2403C59.0934 51.3038 58.0577 52.1307 56.8554 52.6226C55.5498 53.1962 53.9382 53.483 52.0206 53.483C50.8031 53.4944 49.5877 53.3791 48.3939 53.1391C47.4531 52.9666 46.5374 52.678 45.6677 52.28C45.5736 52.2317 45.4952 52.1576 45.4418 52.0663C45.3884 51.975 45.3622 51.8704 45.3663 51.7647V47.1288C45.3608 47.0833 45.368 47.0373 45.387 46.9956C45.4059 46.9539 45.436 46.9182 45.4738 46.8924C45.5107 46.8714 45.5531 46.8622 45.5953 46.866C45.6376 46.8698 45.6777 46.8864 45.7102 46.9137C46.7383 47.5198 47.8547 47.9616 49.0192 48.2231C50.0449 48.4805 51.0971 48.6173 52.1544 48.6308C53.1549 48.6308 53.8919 48.502 54.3655 48.2443C54.5787 48.1467 54.759 47.9894 54.8846 47.7914C55.0102 47.5934 55.0758 47.3633 55.0733 47.1288C55.0733 46.7561 54.8586 46.398 54.4293 46.0546C53.9999 45.7111 53.1261 45.2984 51.808 44.8165C50.46 44.3474 49.1819 43.6974 48.0088 42.8843C47.1697 42.3015 46.4785 41.5306 45.9903 40.6333C45.5672 39.7875 45.3527 38.8526 45.365 37.907C45.3613 36.7678 45.6739 35.65 46.2679 34.678C46.9429 33.61 47.9122 32.7601 49.0592 32.2306C50.3182 31.6011 51.8922 31.2864 53.7815 31.2864C54.8881 31.2771 55.9938 31.3557 57.088 31.5215C57.8801 31.6233 58.6544 31.8337 59.3891 32.1468C59.4474 32.1635 59.501 32.1936 59.5458 32.2346C59.5905 32.2756 59.625 32.3265 59.6467 32.3831C59.6758 32.4878 59.6901 32.596 59.6892 32.7045V37.0416C59.6927 37.0917 59.683 37.1419 59.661 37.1871C59.6391 37.2323 59.6057 37.2709 59.5642 37.2992C59.5063 37.3276 59.4426 37.3421 59.3782 37.3417C59.3137 37.3412 59.2502 37.3258 59.1927 37.2967Z" fill="#31A8FF"/>
</svg>
