<svg width="50" height="51" viewBox="0 0 50 51" fill="none" xmlns="http://www.w3.org/2000/svg">
<g clip-path="url(#clip0_159_263)">
<path fill-rule="evenodd" clip-rule="evenodd" d="M4.6875 3.1875C3.82456 3.1875 3.125 3.90105 3.125 4.78125V39.8438H0V4.78125C0 2.14064 2.09867 0 4.6875 0H46.5514C48.6395 0 49.6852 2.57505 48.2087 4.08105L22.4246 30.3809H29.6875V27.0938H32.8125V31.1777C32.8125 32.4981 31.7632 33.5684 30.4688 33.5684H19.2996L13.9284 39.0468H38.2812V19.125H41.4062V39.0468C41.4062 40.8073 40.0071 42.2343 38.2812 42.2343H10.8034L5.33471 47.8125H45.3125C46.1754 47.8125 46.875 47.099 46.875 46.2188V11.1562H50V46.2188C50 48.8594 47.9013 51 45.3125 51H3.44861C1.36054 51 0.314846 48.425 1.79132 46.9189L27.4778 20.7188H20.3125V23.9062H17.1875V19.9218C17.1875 18.6016 18.2368 17.5312 19.5312 17.5312H30.6028L36.0716 11.9532H11.7188V31.875H8.59378V11.9532C8.59378 10.1927 9.99283 8.76565 11.7188 8.76565H39.1966L44.6653 3.1875H4.6875Z" fill="white"/>
</g>
<defs>
<clipPath id="clip0_159_263">
<rect width="50" height="51" fill="white"/>
</clipPath>
</defs>
</svg>
